<svg xmlns="http://www.w3.org/2000/svg" xmlns:xlink="http://www.w3.org/1999/xlink"><symbol id="icon" viewBox="0 0 100 100"><g xmlns="http://www.w3.org/2000/svg"><rect x="-192" width="185" height="99" fill="currentColor"></rect><rect y="-36" width="100" height="30" fill="currentColor"></rect><text transform="matrix(1 0 0 1 66 -19.5)" fill="currentColor" font-family="'Helvetica'" font-size="2.4">http://thenounproject.com</text><text transform="matrix(1 0 0 1 7.166 -24.5)" fill="currentColor"><tspan x="0" y="0" fill="currentColor" font-family="'Helvetica-Bold'" font-size="6.1578">The Noun Project</tspan><tspan x="1.12" y="4.8" fill="currentColor" font-family="'Helvetica-Bold'" font-size="4">Icon Template</tspan></text><text transform="matrix(1 0 0 1 -178.5 10.5)" fill="currentColor" font-family="'Helvetica-Bold'" font-size="6.1578">Reminders</text><line fill="currentColor" stroke="currentColor" stroke-miterlimit="10" x1="8" y1="-14.5" x2="18" y2="-14.5"></line><line fill="currentColor" stroke="currentColor" stroke-miterlimit="10" x1="-179" y1="16.5" x2="-162" y2="16.5"></line><g><g><g><rect x="-170.802" y="31.318" fill="currentColor" width="8.721" height="8.642"></rect><path fill="currentColor" d="M-164.455,42.312h4.747v-4.703h-4.747V42.312z M-159.266,42.749h-5.63V37.17h5.63V42.749      L-159.266,42.749z M-166.221,44.062h8.279v-8.203h-8.279V44.062L-166.221,44.062z M-157.5,44.5h-9.163v-9.079h9.163V44.5      L-157.5,44.5z"></path><polygon fill="currentColor" points="-166.149,44.133 -166.292,43.991 -158.013,35.787 -157.871,35.929     "></polygon></g></g></g><rect x="-179" y="58" fill="none" width="35" height="32.5"></rect><text transform="matrix(1 0 0 1 -179 60.1572)" fill="currentColor"><tspan x="0" y="0" fill="currentColor" font-family="'Helvetica-Bold'" font-size="3">Strokes</tspan><tspan x="0" y="5" fill="currentColor" font-family="'Helvetica'" font-size="2.4">Try to keep strokes at 4px</tspan><tspan x="0" y="10" fill="currentColor" font-family="'Helvetica'" font-size="2.4">Minimum stroke weight is 2px</tspan><tspan x="0" y="14.5" fill="currentColor" font-family="'Helvetica'" font-size="2.4">For thicker strokes use even </tspan><tspan x="0" y="17.5" fill="currentColor" font-family="'Helvetica'" font-size="2.4">numbers: 6px, 8px etc.</tspan><tspan x="0" y="22" fill="currentColor" font-family="'Helvetica-Bold'" font-size="2.4">Remember to expand strokes </tspan><tspan x="0" y="25" fill="currentColor" font-family="'Helvetica-Bold'" font-size="2.4">before saving as an SVG </tspan></text><rect x="-136.5" y="58" fill="none" width="35" height="32.5"></rect><text transform="matrix(1 0 0 1 -136.5 60.1572)" fill="currentColor"><tspan x="0" y="0" fill="currentColor" font-family="'Helvetica-Bold'" font-size="3">Size</tspan><tspan x="0" y="5" fill="currentColor" font-family="'Helvetica'" font-size="2.4">Cannot be wider or taller than </tspan><tspan x="0" y="8.5" fill="currentColor" font-family="'Helvetica'" font-size="2.4">100px (artboard size)</tspan><tspan x="0" y="13.5" fill="currentColor" font-family="'Helvetica'" font-size="2.4">Scale your icon to fill as much of </tspan><tspan x="0" y="16.5" fill="currentColor" font-family="'Helvetica'" font-size="2.4">the artboard as possible</tspan></text><rect x="-94" y="58" fill="none" width="35" height="32.5"></rect><text transform="matrix(1 0 0 1 -94 60.1572)" fill="currentColor"><tspan x="0" y="0" fill="currentColor" font-family="'Helvetica-Bold'" font-size="3">Ungroup</tspan><tspan x="0" y="5" fill="currentColor" font-family="'Helvetica'" font-size="2.4">If your design has more than one </tspan><tspan x="0" y="8" fill="currentColor" font-family="'Helvetica'" font-size="2.4">shape, make sure to ungroup</tspan></text><rect x="-50" y="58" fill="none" width="35" height="32.5"></rect><text transform="matrix(1 0 0 1 -50 60.1572)" fill="currentColor"><tspan x="0" y="0" fill="currentColor" font-family="'Helvetica-Bold'" font-size="3">Save as</tspan><tspan x="0" y="5" fill="currentColor" font-family="'Helvetica'" font-size="2.4">Save as .SVG and make sure </tspan><tspan x="0" y="8" fill="currentColor" font-family="'Helvetica'" font-size="2.4">“Use Artboards” is checked</tspan></text><text transform="matrix(1.0074 0 0 1 -125.542 30.5933)" fill="currentColor" font-family="'Helvetica'" font-size="2.5731">100px</text><text transform="matrix(1.0074 0 0 1 -41 39)" fill="currentColor" font-family="'Helvetica-Bold'" font-size="5.1462">.SVG</text><rect x="-126.514" y="34.815" fill="currentColor" width="10.261" height="10.185"></rect><rect x="-126.477" y="31.766" fill="currentColor" width="0.522" height="2.337"></rect><rect x="-116.812" y="31.766" fill="currentColor" width="0.523" height="2.337"></rect><rect x="-127" y="32.337" fill="currentColor" width="11.233" height="0.572"></rect><g><rect x="-83.805" y="33.844" fill="currentColor" width="10.305" height="10.156"></rect><rect x="-76.809" y="28.707" fill="currentColor" width="3.308" height="3.261"></rect></g><rect x="-178.5" y="22.5" fill="currentColor" stroke="currentColor" stroke-miterlimit="10" width="30" height="30"></rect><rect x="-136.5" y="22.5" fill="currentColor" stroke="currentColor" stroke-miterlimit="10" width="30" height="30"></rect><rect x="-93.5" y="22.5" fill="currentColor" stroke="currentColor" stroke-miterlimit="10" width="30" height="30"></rect><rect x="-49.5" y="22.5" fill="currentColor" stroke="currentColor" stroke-miterlimit="10" width="30" height="30"></rect></g><g xmlns="http://www.w3.org/2000/svg"><g><path fill="currentColor" d="M91.733,17.335c-0.445-0.44-1.034-0.687-1.663-0.687h-5.79c-1.298,0-2.35,1.052-2.35,2.349    c0,1.296,1.053,2.347,2.35,2.347h3.44v15.464H11.696V21.345h4.566c1.298,0,2.35-1.051,2.35-2.347c0-1.298-1.053-2.349-2.35-2.349    H9.348c-0.619,0-1.222,0.252-1.663,0.687C7.252,17.774,7,18.379,7,18.998v69.655c0,0.617,0.252,1.221,0.686,1.659    C8.126,90.751,8.729,91,9.348,91H90.07c0.628,0,1.218-0.243,1.663-0.688c0.445-0.444,0.688-1.034,0.688-1.659V18.998    C92.421,18.371,92.178,17.779,91.733,17.335z M11.696,86.304V41.504H87.72v44.799H11.696z"></path><path fill="currentColor" d="M35.855,21.345h29.63c1.298,0,2.351-1.049,2.351-2.347c0-1.298-1.053-2.35-2.351-2.35h-29.63    c-1.298,0-2.348,1.053-2.348,2.35C33.507,20.296,34.557,21.345,35.855,21.345z"></path><path fill="currentColor" d="M25.524,26.406c1.298,0,2.35-1.051,2.35-2.349V9.989c0-1.296-1.053-2.347-2.35-2.347    c-1.296,0-2.348,1.052-2.348,2.347v14.067C23.176,25.355,24.229,26.406,25.524,26.406z"></path><path fill="currentColor" d="M74.456,26.406c1.296,0,2.348-1.05,2.348-2.349V9.99c0-1.299-1.053-2.349-2.348-2.349    c-1.298,0-2.348,1.05-2.348,2.349v14.066C72.108,25.356,73.158,26.406,74.456,26.406z"></path></g><path fill="currentColor" d="M68.265,50.395h-6.468c-1.189,0-2.153,0.962-2.153,2.151c0,1.189,0.964,2.15,2.153,2.15h6.468   c1.186,0,2.15-0.961,2.15-2.15C70.415,51.357,69.451,50.395,68.265,50.395z"></path><path fill="currentColor" d="M52.964,50.395h-6.468c-1.19,0-2.15,0.963-2.15,2.15c0,1.19,0.96,2.153,2.15,2.153h6.468   c1.187,0,2.149-0.963,2.149-2.153C55.112,51.358,54.15,50.395,52.964,50.395z"></path><path fill="currentColor" d="M37.979,50.397h-4.903c-1.188,0-2.149,0.961-2.149,2.149c0,1.188,0.961,2.151,2.149,2.151h4.903   c1.188,0,2.151-0.963,2.151-2.151C40.13,51.358,39.167,50.397,37.979,50.397z"></path><path fill="currentColor" d="M68.265,61.752h-6.468c-1.189,0-2.153,0.961-2.153,2.15c0,1.189,0.964,2.151,2.153,2.151h6.468   c1.186,0,2.15-0.962,2.15-2.151C70.415,62.713,69.451,61.752,68.265,61.752z"></path><path fill="currentColor" d="M52.964,61.752h-6.468c-1.19,0-2.15,0.96-2.15,2.15c0,1.19,0.96,2.152,2.15,2.152h6.468   c1.187,0,2.149-0.962,2.149-2.152C55.112,62.712,54.15,61.752,52.964,61.752z"></path><path fill="currentColor" d="M37.979,61.752h-4.903c-1.188,0-2.149,0.961-2.149,2.151c0,1.188,0.961,2.149,2.149,2.149h4.903   c1.188,0,2.151-0.961,2.151-2.149C40.13,62.713,39.167,61.752,37.979,61.752z"></path><path fill="currentColor" d="M68.265,73.108h-6.468c-1.189,0-2.153,0.962-2.153,2.151c0,1.188,0.964,2.153,2.153,2.153h6.468   c1.186,0,2.15-0.965,2.15-2.153C70.415,74.07,69.451,73.108,68.265,73.108z"></path><path fill="currentColor" d="M52.964,73.109h-6.468c-1.19,0-2.15,0.963-2.15,2.15c0,1.189,0.96,2.152,2.15,2.152h6.468   c1.187,0,2.149-0.963,2.149-2.152C55.112,74.072,54.15,73.109,52.964,73.109z"></path><path fill="currentColor" d="M37.979,73.109h-4.903c-1.188,0-2.149,0.961-2.149,2.152c0,1.187,0.961,2.149,2.149,2.149h4.903   c1.188,0,2.151-0.962,2.151-2.149C40.13,74.07,39.167,73.109,37.979,73.109z"></path></g></symbol></svg>