<svg xmlns="http://www.w3.org/2000/svg" xmlns:xlink="http://www.w3.org/1999/xlink"><symbol id="icon" viewBox="0 0 48 30"><g xmlns="http://www.w3.org/2000/svg" transform="translate(-218 -1400)"><g xmlns="http://www.w3.org/2000/svg" xmlns:xlink="http://www.w3.org/1999/xlink"><g><path d="M256,1407l-4,1l-1-3h-2l-1-4h-4v1h-2l-1,1v2l-13-3l-1,1h-1v4l-3,2l-2,4l1,2l6,2l2-1l4-1l3,1v2l1,1v1h1v2l2,1v-1h2l2,1h2     l1,1l-2,1l-1,1l3,1v2h2l1-2h1l1-1h2v-1h-2l-1-1v-2l7-4v-1l1-1.583h2V1410L256,1407z M261,1414.417h-1.551l-1.449,2.294v0.709     l-7,4v2.994l1.086,1.086l-0.5,0.5h-1.204l-1,2H249v-1.721l-1.994-0.664l2.682-1.341l-2.274-2.274h-2.178l-2-1H240v-2h-1v-0.414     l-1-1v-2.307l-3.96-1.32l-4.389,1.098l-1.728,0.863l-5.214-1.737l-0.591-1.183l1.658-3.315l3.224-2.149V1404h0.414l0.901-0.901     l13.685,3.158v-2.843l0.414-0.414H245v-1h2.219l1,4h2.06l1.065,3.194l4.54-1.135l5.116,2.559V1414.417z" fill="currentColor"></path></g><g><path d="M238,1422h-2v1l-1,2l1,1h3v-2h1v-1L238,1422z M238,1425h-1.586l-0.197-0.197l0.783-1.566V1423h0.764l0.236,0.118V1425z" fill="currentColor"></path></g></g></g></symbol></svg>