<svg xmlns="http://www.w3.org/2000/svg" xmlns:xlink="http://www.w3.org/1999/xlink"><symbol id="icon" viewBox="0 0 60 60"><path xmlns="http://www.w3.org/2000/svg" d="M39.0214844,23.2041016l-0.5424805,1.8232422c-0.2304688,0.7753906,0.0385742,1.5898438,0.6855469,2.0751953  c0.3422852,0.2568359,0.7431641,0.3857422,1.1455078,0.3857422c0.3583984,0,0.7177734-0.1025391,1.0375977-0.3095703  l1.5263672-1.0195313l1.8232422,0.5419922c0.7744141,0.2294922,1.5888672-0.0400391,2.074707-0.6865234  c0.4848633-0.6464844,0.5151367-1.5039063,0.0766602-2.1826172l-1.0209961-1.5253906l0.5424805-1.8242188  c0.2304688-0.7744141-0.0385742-1.5888672-0.6850586-2.0742188c-0.6469727-0.4833984-1.5039063-0.5146484-2.1835938-0.0761719  l-1.5263672,1.0195313l-1.8222656-0.5410156c-0.7734375-0.2333984-1.5888672,0.0371094-2.0751953,0.6835938  c-0.4853516,0.6474609-0.515625,1.5039063-0.0771484,2.1835938L39.0214844,23.2041016z M40.2631836,25.4990234h0.0004883  l0.5419922,0.8398438L40.2631836,25.4990234z M41.4047852,21.2685547c0.5336914,0.1591797,1.109375,0.078125,1.5820313-0.2255859  l1.3979492-0.9013672l-0.4741211,1.5957031c-0.1591797,0.5351563-0.0766602,1.1113281,0.2260742,1.5800781l0.9018555,1.3984375  l-1.5942383-0.4736328c-0.534668-0.1601563-1.1132813-0.078125-1.5820313,0.2255859l-1.3984375,0.9013672l0.4746094-1.5957031  c0.1591797-0.5351563,0.0766602-1.1113281-0.2260742-1.5800781l-0.9013672-1.3984375L41.4047852,21.2685547z" fill="currentColor"></path><path xmlns="http://www.w3.org/2000/svg" d="M22,49c4.479187,0,8.5471191-1.7542114,11.586792-4.5952759C35.0285034,44.7922363,36.5087891,45,38,45  c9.3740234,0,17-7.6259766,17-17s-7.6259766-17-17-17c-4.3502808,0-8.4390869,1.6380615-11.5993652,4.5982666  C24.9942627,15.2203979,23.5239868,15,22,15c-9.3740234,0-17,7.6259766-17,17S12.6259766,49,22,49z M38,13  c8.2709961,0,15,6.7285156,15,15s-6.7290039,15-15,15c-0.9487305,0-1.8920898-0.1001587-2.8225098-0.2784424  C37.5638428,39.7940674,39,36.0626831,39,32c0-7.0403442-4.3023071-13.0935059-10.4153442-15.6716309  C31.2439575,14.1749268,34.5303345,13,38,13z M22,17c8.2709961,0,15,6.7285156,15,15s-6.7290039,15-15,15S7,40.2714844,7,32  S13.7290039,17,22,17z" fill="currentColor"></path><path xmlns="http://www.w3.org/2000/svg" d="M15.3017578,30.7011719l1.7514648-0.5537109l1.5986328,1.03125  c0.3198242,0.2070313,0.6791992,0.3095703,1.0375977,0.3095703c0.4023438,0,0.8032227-0.1298828,1.1455078-0.3857422  c0.6469727-0.4853516,0.9160156-1.2998047,0.6855469-2.0751953l-0.5527344-1.75l1.03125-1.5996094  c0.4384766-0.6796875,0.4082031-1.5361328-0.0771484-2.1835938c-0.4863281-0.6474609-1.3027344-0.9140625-2.0737305-0.6845703  l-1.7514648,0.5537109l-1.5986328-1.03125c-0.6787109-0.4384766-1.5356445-0.4072266-2.1835938,0.0761719  c-0.6464844,0.4853516-0.9155273,1.2998047-0.6850586,2.0742188l0.5527344,1.7509766l-1.03125,1.5986328  c-0.4384766,0.6787109-0.4082031,1.5361328,0.0766602,2.1826172C13.7128906,30.6621094,14.5288086,30.9316406,15.3017578,30.7011719  z M19.1938477,30.3388672l0.5419922-0.8398438h0.0004883L19.1938477,30.3388672z M15.8623047,27.3183594  c0.3032227-0.4697266,0.3857422-1.0458984,0.2265625-1.5820313l-0.4741211-1.5947266l1.3999023,0.9033203  c0.4702148,0.3007813,1.0458984,0.3808594,1.5791016,0.2246094l1.5947266-0.4746094l-0.9008789,1.3974609  c-0.3032227,0.4697266-0.3857422,1.0458984-0.2265625,1.5820313l0.4746094,1.5947266l-1.3974609-0.9013672  c-0.3125-0.2021484-0.6723633-0.3056641-1.0361328-0.3056641c-0.1831055,0-0.3666992,0.0263672-0.5458984,0.0791016  l-1.5952148,0.4746094L15.8623047,27.3183594z" fill="currentColor"></path></symbol></svg>