<svg xmlns="http://www.w3.org/2000/svg" xmlns:xlink="http://www.w3.org/1999/xlink"><symbol id="icon" viewBox="0 0 128 128"><g xmlns="http://www.w3.org/2000/svg"><path d="M96.511,64l8.745-8.743c0.692-0.691,0.692-1.816,0-2.51c-0.693-0.695-1.819-0.695-2.516,0l-9.48,9.475H73.878   c-0.265-1.449-0.824-2.789-1.637-3.95l13.713-13.708h13.399c0.986,0,1.778-0.798,1.778-1.778c0-0.979-0.792-1.78-1.778-1.78H86.99   V28.646c0-0.98-0.795-1.777-1.774-1.777c-0.983,0-1.779,0.796-1.779,1.777v13.406l-13.709,13.71   c-1.165-0.815-2.503-1.38-3.952-1.641V34.738l9.484-9.479c0.691-0.697,0.691-1.821,0-2.514c-0.699-0.694-1.824-0.694-2.516,0   l-8.746,8.742l-8.741-8.74c-0.697-0.696-1.817-0.696-2.518,0c-0.693,0.691-0.693,1.819,0,2.512l9.484,9.479v19.384   c-1.45,0.261-2.79,0.826-3.951,1.634L44.566,42.052V28.646c0-0.98-0.795-1.777-1.78-1.777c-0.983,0-1.781,0.796-1.781,1.777v12.361   H28.646c-0.982,0-1.783,0.801-1.783,1.78c0,0.98,0.801,1.778,1.783,1.778h13.406l13.706,13.708c-0.812,1.161-1.38,2.501-1.641,3.95   H34.734l-9.475-9.479c-0.7-0.691-1.823-0.691-2.517,0c-0.695,0.698-0.695,1.819,0,2.515L31.485,64l-8.74,8.742   c-0.694,0.695-0.694,1.818,0,2.519c0.349,0.345,0.8,0.516,1.258,0.516c0.454,0,0.91-0.171,1.256-0.516l9.475-9.483h19.384   c0.261,1.45,0.834,2.79,1.641,3.952L42.052,83.437H28.646c-0.982,0-1.783,0.795-1.783,1.778c0,0.98,0.801,1.775,1.783,1.775h12.358   v12.364c0,0.981,0.798,1.778,1.781,1.778c0.985,0,1.78-0.797,1.78-1.778V85.95l13.711-13.706c1.158,0.808,2.499,1.371,3.946,1.632   v19.388l-9.484,9.479c-0.693,0.697-0.693,1.819,0,2.518c0.7,0.689,1.821,0.689,2.518,0l8.741-8.746l8.746,8.746   c0.344,0.345,0.798,0.518,1.256,0.518c0.455,0,0.905-0.173,1.26-0.518c0.691-0.698,0.691-1.82,0-2.518l-9.484-9.479V73.876   c1.447-0.261,2.787-0.824,3.952-1.637L83.437,85.95v13.404c0,0.981,0.796,1.778,1.779,1.778c0.979,0,1.774-0.797,1.774-1.778V86.99   h12.363c0.986,0,1.778-0.795,1.778-1.775c0-0.983-0.792-1.778-1.778-1.778H85.954L72.241,69.728c0.813-1.16,1.372-2.5,1.637-3.95   H93.26l9.48,9.483c0.345,0.345,0.801,0.516,1.259,0.516c0.453,0,0.909-0.171,1.257-0.516c0.692-0.7,0.692-1.823,0-2.519L96.511,64z    M63.998,70.491c-3.58,0-6.489-2.912-6.489-6.491c0-3.575,2.909-6.488,6.487-6.488c0.002,0,0.002,0,0.002,0   c0.004,0,0.004,0,0.004,0c3.577,0,6.486,2.914,6.486,6.488C70.488,67.579,67.576,70.491,63.998,70.491z" fill="currentColor"></path></g></symbol></svg>