<svg xmlns="http://www.w3.org/2000/svg" xmlns:xlink="http://www.w3.org/1999/xlink"><symbol id="icon" viewBox="0 0 512 512"><g xmlns="http://www.w3.org/2000/svg"><g><g><g><g><path d="M256,260c-2.209,0-4-1.791-4-4V26c0-2.209,1.791-4,4-4s4,1.791,4,4v230C260,258.209,258.209,260,256,260z" fill="currentColor"></path></g><g><g><path d="M256,120c-1.024,0-2.047-0.391-2.829-1.171l-60-60c-1.562-1.563-1.562-4.095,0-5.657c1.563-1.562,4.095-1.562,5.657,0        l60,60c1.563,1.563,1.563,4.095,0,5.657C258.048,119.609,257.023,120,256,120z" fill="currentColor"></path></g><g><path d="M256,120c-1.024,0-2.047-0.391-2.829-1.171c-1.562-1.563-1.562-4.095,0-5.657l60-60c1.563-1.562,4.096-1.562,5.656,0        c1.563,1.563,1.563,4.095,0,5.657l-60,60C258.048,119.609,257.023,120,256,120z" fill="currentColor"></path></g></g></g><g><g><path d="M256,490c-2.209,0-4-1.791-4-4V256c0-2.209,1.791-4,4-4s4,1.791,4,4v230C260,488.209,258.209,490,256,490z" fill="currentColor"></path></g><g><g><path d="M196,460c-1.024,0-2.047-0.391-2.829-1.172c-1.562-1.563-1.562-4.095,0-5.656l60-60c1.563-1.563,4.095-1.563,5.657,0        s1.563,4.096,0,5.656l-60,60C198.047,459.609,197.024,460,196,460z" fill="currentColor"></path></g><g><path d="M316,460c-1.023,0-2.048-0.391-2.828-1.172l-60-60c-1.562-1.563-1.562-4.096,0-5.656c1.563-1.563,4.096-1.563,5.657,0        l60,60c1.563,1.563,1.563,4.095,0,5.656C318.048,459.609,317.023,460,316,460z" fill="currentColor"></path></g></g></g></g><g><g><g><path d="M256,260c-1.024,0-2.047-0.391-2.829-1.172c-1.562-1.563-1.562-4.094,0-5.657L415.807,90.537       c1.563-1.562,4.098-1.562,5.656,0c1.563,1.563,1.563,4.095,0,5.657L258.828,258.828C258.048,259.609,257.023,260,256,260z" fill="currentColor"></path></g><g><g><path d="M354.995,161.005c-2.209,0-4-1.791-4-4V72.152c0-2.209,1.791-4,4-4s4,1.791,4,4v84.853        C358.995,159.214,357.204,161.005,354.995,161.005z" fill="currentColor"></path></g><g><path d="M439.848,161.005h-84.853c-2.209,0-4-1.791-4-4s1.791-4,4-4h84.853c2.209,0,4,1.791,4,4        S442.057,161.005,439.848,161.005z" fill="currentColor"></path></g></g></g><g><g><path d="M93.365,422.635c-1.024,0-2.047-0.391-2.829-1.172c-1.562-1.563-1.562-4.095,0-5.656l162.635-162.635       c1.563-1.562,4.095-1.562,5.657,0c1.563,1.563,1.563,4.096,0,5.657L96.194,421.463       C95.413,422.244,94.389,422.635,93.365,422.635z" fill="currentColor"></path></g><g><g><path d="M157.005,358.995H72.152c-2.209,0-4-1.791-4-4s1.791-4,4-4h84.853c2.209,0,4,1.791,4,4        S159.214,358.995,157.005,358.995z" fill="currentColor"></path></g><g><path d="M157.005,443.848c-2.209,0-4-1.791-4-4v-84.853c0-2.209,1.791-4,4-4s4,1.791,4,4v84.853        C161.005,442.057,159.214,443.848,157.005,443.848z" fill="currentColor"></path></g></g></g></g><g><g><g><path d="M486,260H256c-2.209,0-4-1.791-4-4s1.791-4,4-4h230c2.209,0,4,1.791,4,4S488.209,260,486,260z" fill="currentColor"></path></g><g><g><path d="M396,260c-1.023,0-2.048-0.391-2.828-1.172c-1.563-1.563-1.563-4.094,0-5.657l60-60c1.563-1.562,4.096-1.562,5.656,0        c1.563,1.563,1.563,4.095,0,5.657l-60,60C398.048,259.609,397.023,260,396,260z" fill="currentColor"></path></g><g><path d="M456,320c-1.023,0-2.048-0.391-2.828-1.172l-60-60c-1.563-1.563-1.563-4.094,0-5.657c1.563-1.562,4.096-1.562,5.656,0        l60,60c1.563,1.562,1.563,4.095,0,5.656C458.048,319.609,457.023,320,456,320z" fill="currentColor"></path></g></g></g><g><g><path d="M256,260H26c-2.209,0-4-1.791-4-4s1.791-4,4-4h230c2.209,0,4,1.791,4,4S258.209,260,256,260z" fill="currentColor"></path></g><g><g><path d="M116,260c-1.024,0-2.047-0.391-2.829-1.172l-60-60c-1.562-1.563-1.562-4.095,0-5.657c1.563-1.562,4.095-1.562,5.657,0        l60,60c1.562,1.563,1.562,4.095,0,5.657C118.047,259.609,117.024,260,116,260z" fill="currentColor"></path></g><g><path d="M56,320c-1.024,0-2.047-0.391-2.829-1.172c-1.562-1.563-1.562-4.096,0-5.656l60-60c1.563-1.562,4.095-1.562,5.657,0        c1.562,1.563,1.562,4.096,0,5.657l-60,60C58.047,319.609,57.024,320,56,320z" fill="currentColor"></path></g></g></g></g><g><g><g><path d="M418.635,422.635c-1.021,0-2.048-0.391-2.828-1.172L253.171,258.828c-1.562-1.563-1.562-4.094,0-5.657       c1.563-1.562,4.095-1.562,5.657,0l162.635,162.636c1.563,1.563,1.563,4.094,0,5.655       C420.683,422.244,419.658,422.635,418.635,422.635z" fill="currentColor"></path></g><g><g><path d="M439.848,358.995h-84.853c-2.209,0-4-1.791-4-4s1.791-4,4-4h84.853c2.209,0,4,1.791,4,4        S442.057,358.995,439.848,358.995z" fill="currentColor"></path></g><g><path d="M354.995,443.848c-2.209,0-4-1.791-4-4v-84.853c0-2.209,1.791-4,4-4s4,1.791,4,4v84.853        C358.995,442.057,357.204,443.848,354.995,443.848z" fill="currentColor"></path></g></g></g><g><g><path d="M256,260c-1.024,0-2.047-0.391-2.829-1.172L90.537,96.194c-1.562-1.563-1.562-4.095,0-5.657       c1.563-1.562,4.095-1.562,5.657,0l162.634,162.635c1.563,1.563,1.563,4.096,0,5.657C258.048,259.609,257.023,260,256,260z" fill="currentColor"></path></g><g><g><path d="M157.005,161.005c-2.209,0-4-1.791-4-4V72.152c0-2.209,1.791-4,4-4s4,1.791,4,4v84.853        C161.005,159.214,159.214,161.005,157.005,161.005z" fill="currentColor"></path></g><g><path d="M157.005,161.005H72.152c-2.209,0-4-1.791-4-4s1.791-4,4-4h84.853c2.209,0,4,1.791,4,4        S159.214,161.005,157.005,161.005z" fill="currentColor"></path></g></g></g></g></g></g></symbol></svg>