<svg xmlns="http://www.w3.org/2000/svg" width="50" height="50" viewBox="-3 -3 22 22" id="icon"><path d="M15.485 11c0-3.974-2.81-7.217-6.956-7.476V2.5H10a.5.5 0 0 0 0-1H6a.5.5 0 0 0 0 1h1.47v1.024C3.322 3.784.512 7.026.512 11c0 .167.015.333.026.5H.512v1h14.973v-1h-.026c.01-.167.025-.333.025-.5zm-1.087.5H1.6a5.935 5.935 0 0 1-.026-.5c0-3.59 2.618-6.5 6.426-6.5 3.81 0 6.426 2.91 6.426 6.5 0 .167-.015.333-.028.5zm.557 2H1.043c-.293 0-.53.224-.53.5s.237.5.53.5h13.912c.293 0 .53-.226.53-.5s-.237-.5-.53-.5z"/></svg>